.
..............................Site Info...........................

 -   http://www.scenetime.com  *_*    

Scenetime .Always on time . friendly online private torrent community ..

     We care to share . Join us on  http://www.scenetime.com 

    Be the first to get new release at  http://www.scenetime.com

        Seed back for speed


...................................NFO:.................................................(  ___  )|     /|(  ____ (  __   
| (   ) |(    / )| (    /| (    )
| (___) |  (_) / | (__    | |   ) |
|  ___  |  ) _ (  |  __)   | |   | |
| (   ) | / ( )  | (      | |   ) |
| )   ( |( /    )| (____/| (__/  )
|/     ||/     |(_______/(______/ 
  _    _    _    _    _    _    _    _  
 /   /   /   /   /   /   /   /  
( p )( r )( e )( s )( e )( n )( t )( s )
 _/  _/  _/  _/  _/  _/  _/  _/
 
ThanksKilling.3.2012.HDRiP.AC3-2.0.XviD-AXED

POSTER: 
[IMG]http://img571.imageshack.us/img571/9126/tk3x.jpg[/IMG]

IMDB:  
http://www.imdb.com/title/tt2106675/

PLOT INFO:
Fowl-mouthed villain Turkie carves through the likes of a rapping grandma, a mindless puppet, a wig-wearing inventor, a bisexual space worm, and their equally ridiculous friends on his quest to recover the last copy of "ThanksKilling 2".

MEDIAINFO:
General
Complete name                            : ThanksKilling.3.2012.HDRiP.AC3-2.0.XviD-AXED.avi
Format                                   : AVI
Format/Info                              : Audio Video Interleave
File size                                : 1.37 GiB
Duration                                 : 1h 39mn
Overall bit rate                         : 1 975 Kbps

Video
ID                                       : 0
Format                                   : MPEG-4 Visual
Format profile                           : Advanced Simple@L5
Format settings, BVOP                    : 2
Format settings, QPel                    : No
Format settings, GMC                     : No warppoints
Format settings, Matrix                  : Default (H.263)
Muxing mode                              : Packed bitstream
Codec ID                                 : XVID
Codec ID/Hint                            : XviD
Duration                                 : 1h 39mn
Bit rate                                 : 1 775 Kbps
Width                                    : 720 pixels
Height                                   : 304 pixels
Display aspect ratio                     : 2.35:1
Frame rate                               : 23.976 fps
Color space                              : YUV
Chroma subsampling                       : 4:2:0
Bit depth                                : 8 bits
Scan type                                : Progressive
Compression mode                         : Lossy
Bits/(Pixel*Frame)                       : 0.338
Stream size                              : 1.23 GiB (90%)
Writing library                          : XviD 64

Audio
ID                                       : 1
Format                                   : AC-3
Format/Info                              : Audio Coding 3
Mode extension                           : CM (complete main)
Format settings, Endianness              : Big
Codec ID                                 : 2000
Duration                                 : 1h 39mn
Bit rate mode                            : Constant
Bit rate                                 : 192 Kbps
Channel(s)                               : 2 channels
Channel positions                        : Front: L R
Sampling rate                            : 48.0 KHz
Bit depth                                : 16 bits
Compression mode                         : Lossy
Stream size                              : 136 MiB (10%)
Alignment                                : Aligned on interleaves
Interleave, duration                     : 64 ms (1.53 video frames)
Interleave, preload duration             : 192 ms
Title                                    : thankskilling3




SOURCE: 
720p Super Secret Source!


NOTES: 
Here's one for all the b horror film lovers out there before it even hits limited theatres or VOD!

AXED! - The only name to trust for VOD/HDRiP!

SCREENS:
[IMG]http://imageshack.us/a/img690/6494/scrncp00007.png[/IMG]
[IMG]http://imageshack.us/a/img132/865/scrncp00010.png[/IMG]
[IMG]http://imageshack.us/a/img836/1217/scrncp00023.png[/IMG]
[IMG]http://imageshack.us/a/img40/4299/scrncp00024.png[/IMG]
[IMG]http://imageshack.us/a/img825/2500/scrncp00030.png[/IMG]
